<svg width="1377" height="877" viewBox="0 0 1377 877" fill="none" xmlns="http://www.w3.org/2000/svg">
<g opacity="0.5">
<path opacity="0.05" d="M723.346 58.4398C718.945 42.152 704.065 30.1541 686.381 30.1541C665.233 30.1541 648.085 47.302 648.085 68.4493C648.085 68.6057 648.097 68.7509 648.097 68.9073C630.312 71.0299 616.918 80.2574 616.918 91.3281C616.918 97.8298 621.542 103.695 628.96 107.85C628.502 109.403 628.245 111.023 628.245 112.676C628.245 124.473 640.511 134.036 655.637 134.036C665.3 134.036 673.779 130.137 678.661 124.239C686.805 130.327 697.53 134.036 709.282 134.036C734.73 134.036 755.363 116.698 755.363 95.3163C755.375 78.0566 741.924 63.4334 723.346 58.4398Z" fill="#C6C6C6"/>
<path opacity="0.05" d="M119.806 135.075C111.997 106.163 85.5997 84.8933 54.2306 84.8933C16.7062 84.8933 -13.702 115.313 -13.702 152.826C-13.702 153.105 -13.6797 153.373 -13.6797 153.641C-45.2386 157.417 -69 173.783 -69 193.423C-69 204.951 -60.7891 215.352 -47.6293 222.747C-48.4448 225.506 -48.8917 228.366 -48.8917 231.316C-48.8917 252.239 -27.1411 269.209 -0.296486 269.209C16.8403 269.209 31.8992 262.282 40.5458 251.837C54.9903 262.64 74.015 269.209 94.8718 269.209C140.026 269.209 176.635 238.454 176.635 200.505C176.623 169.873 152.762 143.934 119.806 135.075Z" fill="#C6C6C6"/>
<path opacity="0.1" d="M825.236 190.281C819.767 169.954 801.279 155 779.309 155C753.027 155 731.73 176.387 731.73 202.762C731.73 202.958 731.745 203.146 731.745 203.335C709.642 205.99 693 217.496 693 231.304C693 239.41 698.751 246.722 707.968 251.921C707.396 253.861 707.084 255.872 707.084 257.946C707.084 272.657 722.317 284.587 741.119 284.587C753.121 284.587 763.668 279.717 769.724 272.374C779.841 279.969 793.165 284.587 807.773 284.587C839.398 284.587 865.038 262.964 865.038 236.284C865.03 214.747 848.318 196.51 825.236 190.281Z" fill="#C6C6C6"/>
<path opacity="0.15" d="M76.3009 343.71C69.3403 317.951 45.8094 299 17.8472 299C-15.6019 299 -42.7077 326.103 -42.7077 359.526C-42.7077 359.774 -42.6877 360.013 -42.6877 360.252C-70.8192 363.616 -92 378.198 -92 395.696C-92 405.967 -84.6808 415.234 -72.9503 421.823C-73.6772 424.281 -74.0755 426.829 -74.0755 429.457C-74.0755 448.099 -54.6872 463.218 -30.758 463.218C-15.4824 463.218 -2.05892 457.047 5.64861 447.741C18.5244 457.366 35.4829 463.218 54.0746 463.218C94.325 463.218 126.958 435.817 126.958 402.006C126.958 374.714 105.687 351.603 76.3009 343.71Z" fill="#C6C6C6"/>
<path opacity="0.15" d="M511.301 569.71C504.34 543.951 480.809 525 452.847 525C419.398 525 392.292 552.103 392.292 585.526C392.292 585.774 392.312 586.013 392.312 586.252C364.181 589.616 343 604.198 343 621.696C343 631.967 350.319 641.234 362.05 647.823C361.323 650.281 360.924 652.829 360.924 655.457C360.924 674.099 380.313 689.218 404.242 689.218C419.518 689.218 432.941 683.047 440.649 673.741C453.524 683.366 470.483 689.218 489.075 689.218C529.325 689.218 561.958 661.817 561.958 628.006C561.958 600.714 540.687 577.603 511.301 569.71Z" fill="#C6C6C6"/>
<path opacity="0.15" d="M943.301 44.7098C936.34 18.9509 912.809 0 884.847 0C851.398 0 824.292 27.1026 824.292 60.5255C824.292 60.7743 824.312 61.0132 824.312 61.2521C796.181 64.6163 775 79.1978 775 96.6955C775 106.967 782.319 116.234 794.05 122.823C793.323 125.281 792.924 127.829 792.924 130.457C792.924 149.099 812.313 164.218 836.242 164.218C851.518 164.218 864.941 158.047 872.649 148.741C885.524 158.366 902.483 164.218 921.075 164.218C961.325 164.218 993.958 136.817 993.958 103.006C993.958 75.7141 972.687 52.6027 943.301 44.7098Z" fill="#C6C6C6"/>
<path opacity="0.05" d="M362.539 719.005C353.376 685.01 322.402 660 285.595 660C241.565 660 205.885 695.768 205.885 739.877C205.885 740.206 205.911 740.521 205.911 740.836C168.881 745.276 141 764.519 141 787.612C141 801.168 150.634 813.397 166.076 822.093C165.119 825.337 164.594 828.7 164.594 832.167C164.594 856.77 190.116 876.723 221.614 876.723C241.722 876.723 259.392 868.579 269.537 856.298C286.486 869 308.809 876.723 333.282 876.723C386.265 876.723 429.22 840.561 429.22 795.94C429.22 759.922 401.221 729.421 362.539 719.005Z" fill="#C6C6C6"/>
<path opacity="0.1" d="M202.324 615.069C198.133 599.474 183.967 588 167.132 588C146.995 588 130.676 604.409 130.676 624.645C130.676 624.795 130.688 624.94 130.688 625.085C113.752 627.121 101 635.95 101 646.544C101 652.762 105.406 658.373 112.469 662.362C112.031 663.851 111.791 665.393 111.791 666.984C111.791 678.271 123.464 687.425 137.87 687.425C147.067 687.425 155.148 683.688 159.788 678.054C167.54 683.881 177.75 687.425 188.943 687.425C213.175 687.425 232.821 670.835 232.821 650.364C232.821 633.841 220.016 619.848 202.324 615.069Z" fill="#C6C6C6"/>
<path opacity="0.09" d="M861.519 679.977C856.121 659.826 837.873 645 816.188 645C790.248 645 769.227 666.203 769.227 692.35C769.227 692.545 769.242 692.731 769.242 692.918C747.426 695.55 731 706.957 731 720.646C731 728.682 736.676 735.931 745.773 741.086C745.21 743.009 744.901 745.002 744.901 747.058C744.901 761.642 759.936 773.47 778.494 773.47C790.34 773.47 800.75 768.642 806.727 761.362C816.713 768.892 829.864 773.47 844.282 773.47C875.497 773.47 900.804 752.034 900.804 725.583C900.804 704.232 884.308 686.152 861.519 679.977Z" fill="#C6C6C6"/>
<path opacity="0.1" d="M1328.71 426.885C1322.11 402.177 1299.78 384 1273.24 384C1241.5 384 1215.78 409.996 1215.78 442.055C1215.78 442.294 1215.8 442.523 1215.8 442.752C1189.1 445.979 1169 459.965 1169 476.749C1169 486.601 1175.95 495.489 1187.08 501.81C1186.39 504.168 1186.01 506.612 1186.01 509.132C1186.01 527.014 1204.41 541.515 1227.12 541.515C1241.61 541.515 1254.35 535.596 1261.67 526.67C1273.89 535.902 1289.98 541.515 1307.62 541.515C1345.82 541.515 1376.79 515.233 1376.79 482.802C1376.79 456.624 1356.6 434.456 1328.71 426.885Z" fill="#C6C6C6"/>
</g>
</svg>
